<svg enable-background="new 0 0 30 32" id="Filled_Outline" viewBox="0 0 35 58" xml:space="preserve" xmlns="http://www.w3.org/2000/svg" xmlns:xlink="http://www.w3.org/1999/xlink" alt="sun">
  <desc></desc>
  <g>
    <circle cx="16" cy="16" fill="#F2B035" r="9"></circle>
    <g>
      <path d="M16,26c-5.514,0-10-4.486-10-10S10.486,6,16,6s10,4.486,10,10S21.514,26,16,26z M16,8    c-4.411,0-8,3.589-8,8s3.589,8,8,8s8-3.589,8-8S20.411,8,16,8z" fill="#1A1A1A"></path>
      <rect fill="#F2B035" height="4" width="2" x="15"></rect>
      <rect fill="#F2B035" height="4" transform="matrix(0.7071 -0.7071 0.7071 0.7071 -2.5269 6.1006)" width="2" x="5.101" y="4.101"></rect>
      <rect fill="#F2B035" height="2" width="4" y="15"></rect>
      <rect fill="#F2B035" height="2" transform="matrix(0.7071 -0.7071 0.7071 0.7071 -16.5268 11.8995)" width="4" x="4.101" y="24.9"></rect>
      <rect fill="#F2B035" height="4" width="2" x="15" y="28"></rect>
      <rect fill="#F2B035" height="4" transform="matrix(0.7071 -0.7071 0.7071 0.7071 -10.7279 25.8994)" width="2" x="24.9" y="23.9"></rect>
      <rect fill="#F2B035" height="2" width="4" x="28" y="15"></rect>
      <rect fill="#F2B035" height="2" transform="matrix(0.7071 -0.7071 0.7071 0.7071 3.272 20.1005)" width="4" x="23.9" y="5.101"></rect>
    </g>
  </g>
</svg>
